<svg id="eJFRb23Vr9C1" xmlns="http://www.w3.org/2000/svg" xmlns:xlink="http://www.w3.org/1999/xlink" viewBox="0 0 210 297" shape-rendering="geometricPrecision" text-rendering="geometricPrecision"><style><![CDATA[#eJFRb23Vr9C3_ts {animation: eJFRb23Vr9C3_ts__ts 5000ms linear 1 normal forwards}@keyframes eJFRb23Vr9C3_ts__ts { 0% {transform: translate(109.080248px,240.84454px) scale(0,0);animation-timing-function: cubic-bezier(0.42,0,0.58,1)} 10% {transform: translate(109.080248px,240.84454px) scale(1,1)} 100% {transform: translate(109.080248px,240.84454px) scale(1,1)}} #eJFRb23Vr9C4_ts {animation: eJFRb23Vr9C4_ts__ts 5000ms linear 1 normal forwards}@keyframes eJFRb23Vr9C4_ts__ts { 0% {transform: translate(109.085282px,238.140925px) scale(0,0)} 2% {transform: translate(109.085282px,238.140925px) scale(0,0);animation-timing-function: cubic-bezier(0.42,0,0.58,1)} 20% {transform: translate(109.085282px,238.140925px) scale(1,1)} 100% {transform: translate(109.085282px,238.140925px) scale(1,1)}} #eJFRb23Vr9C5_ts {animation: eJFRb23Vr9C5_ts__ts 5000ms linear 1 normal forwards}@keyframes eJFRb23Vr9C5_ts__ts { 0% {transform: translate(83.923469px,166.152254px) scale(0,0)} 14% {transform: translate(83.923469px,166.152254px) scale(0,0)} 34% {transform: translate(83.923469px,166.152254px) scale(0.264583,0.264583)} 100% {transform: translate(83.923469px,166.152254px) scale(0.264583,0.264583)}} #eJFRb23Vr9C6_ts {animation: eJFRb23Vr9C6_ts__ts 5000ms linear 1 normal forwards}@keyframes eJFRb23Vr9C6_ts__ts { 0% {transform: translate(134.247894px,166.22573px) scale(0,0.264583)} 14% {transform: translate(134.247894px,166.22573px) scale(0,0.264583)} 34% {transform: translate(134.247894px,166.22573px) scale(0.264583,0.264583)} 100% {transform: translate(134.247894px,166.22573px) scale(0.264583,0.264583)}}]]></style><g transform="translate(-4.080131-9.532323)"><g id="eJFRb23Vr9C3_ts" transform="translate(109.080248,240.84454) scale(0,0)"><path d="M193.84033,240.84454c.000014,10.163948-33.333996,18.426691-74.67361,18.50989s-75.219349-8.044273-75.896117-18.20686s32.102576-18.558377,73.431097-18.80795s75.74489,7.740443,77.09828,17.89894" transform="translate(-118.550434,-240.844536)" fill="#00aad4" stroke="#29aade" stroke-width="0.786142" stroke-linejoin="round"/></g><g id="eJFRb23Vr9C4_ts" transform="translate(109.085282,238.140925) scale(0,0)"><path d="M144.13235,238.14076c.00002,2.284035-11.694514,4.140834-26.19765,4.15953s-26.389108-1.807703-26.626534-4.09143s11.262504-4.170427,25.761754-4.22651s26.573494,1.73943,27.04828,4.02224" transform="translate(-117.720261,-238.140921)" fill="#0cf" stroke="#2bc9f0" stroke-width="0.786142" stroke-linejoin="round"/></g><g id="eJFRb23Vr9C5_ts" transform="translate(83.923469,166.152254) scale(0,0)"><path d="M425.82827,904.22843c-1.89847-1.59745-7.0269-8.97624-11.39653-16.39731s-11.85934-19.59286-16.64382-27.04842-8.69906-13.87449-8.69906-14.26429-5.49044-9.54765-12.201-20.35076c-13.3119-21.43044-26.33095-42.63068-36.2974-59.10675-14.91071-24.64971-24.13929-39.57245-25.43715-41.13225-.76313-.91714-3.1742-5.01003-5.35794-9.09532s-6.67249-11.58914-9.975-16.67524c-7.30208-11.24571-35.35848-57.97083-38.46327-64.05674-2.823-5.53352-8.31881-21.28642-11.7116-33.56945-2.32557-8.41937-3.31336-13.34315-5.61683-27.99799-1.28504-8.17552-.62236-37.68714,1.07549-47.89559c3.11932-18.75509,10.49019-42.79678,17.29048-56.39664c7.81408-15.62732,22.71563-36.5188,34.76268-48.73613c14.26666-14.46832,34.54851-29.75729,49.55086-37.35269c22.14777-11.213,57.78261-20.60782,78.23244-20.62532l8.61554-.007v47.2465v47.24651l-5.28049.002c-6.67953.002-21.5383,2.63389-28.05981,4.9703-27.98463,10.02583-52.92317,37.60016-60.49802,66.89216-2.37438,9.18173-2.40752,38.11237-.0551,48.09221c1.80427,7.65434,8.50067,22.82452,12.9942,29.43736c8.46176,12.45259,24.26998,26.82084,36.02565,32.74407c10.85773,5.47079,28.75278,10.13013,39.03724,10.16415l5.83633.0193v128.39933c0,125.95079-.0408,128.39932-2.13806,128.39932-1.17595,0-3.69137-1.307-5.58983-2.90446Z" transform="translate(-338.45628,-635.32793)" fill="#d40000" stroke="#f00c2e" stroke-width="0.87394" stroke-linejoin="round"/></g><g id="eJFRb23Vr9C6_ts" transform="translate(134.247894,166.22573) scale(0,0.264583)"><path d="M434.66784,778.73357v-128.39933l5.2805-.0193c12.93175-.0472,35.06817-6.98416,46.30299-14.50995c9.9849-6.68851,22.81282-19.47711,28.915-28.82637c5.41058-8.28964,11.08492-22.60067,13.4439-33.90631c2.13749-10.24419,2.09436-27.44729-.0956-38.122-2.13272-10.39576-8.83812-26.85438-14.28236-35.05646-4.98239-7.50624-20.75773-22.77099-28.94565-28.00874-11.97136-7.65799-32.46013-13.87189-45.73904-13.87189h-4.87977l-.00044-47.52443-.00045-47.52442l11.39519.68153c19.06828,1.14045,35.32865,4.73112,55.86249,12.33576c14.36787,5.3211,18.28843,7.18783,29.45959,14.02686c26.20993,16.04584,49.32177,38.80851,65.63556,64.64392c6.80483,10.77652,17.15343,34.8309,21.29384,49.4956c8.1827,28.98187,8.75777,66.84479,1.44391,95.06989-4.80741,18.55235-15.58267,43.06978-26.86253,61.1215-3.62954,5.80854-8.47821,13.56252-10.77482,17.23107s-6.27241,10.29676-8.83513,14.72936-11.45791,19.19018-19.76711,32.79464c-34.03043,55.71717-53.43638,87.67895-60.0637,98.92548-2.06696,3.50762-8.29593,13.76289-13.84215,22.78949s-12.46083,20.41406-15.36578,25.30547c-10.16534,17.1165-19.36367,31.04803-21.80457,33.02455-1.35399,1.09639-3.65702,1.99344-5.11785,1.99344h-2.65605Z" transform="translate(-529.76983,-635.049465)" fill="#ff2a2a" stroke="#f00c2e" stroke-width="0.87394" stroke-linejoin="round"/></g></g></svg>